<svg width="633pt" height="352pt" viewBox="0.00 0.00 633.31 352.00" xmlns="http://www.w3.org/2000/svg" xmlns:xlink="http://www.w3.org/1999/xlink">
<g id="graph0" class="graph" transform="scale(1 1) rotate(0) translate(4 348)">
<title>Connectivity to 172.22.108.0/25</title>
<polygon fill="white" stroke="transparent" points="-4,4 -4,-348 629.31,-348 629.31,4 -4,4"></polygon>
<!-- dest_prefix -->
<g id="node1" class="node">
<title>dest_prefix</title>
<ellipse fill="none" stroke="green" stroke-width="1.5" cx="557.24" cy="-180" rx="68.13" ry="18"></ellipse>
<text text-anchor="middle" x="557.24" y="-176.3" font-family="Times,serif" font-size="14.00">172.22.108.0/25</text>
</g>
<!-- AS4242423914 -->
<g id="node2" class="node">
<title>AS4242423914</title>
<ellipse fill="none" stroke="blue" stroke-width="1.5" cx="226.59" cy="-326" rx="63.56" ry="18"></ellipse>
<text text-anchor="middle" x="226.59" y="-322.3" font-family="Times,serif" font-size="14.00">AS4242423914</text>
</g>
<!-- AS4242421080 -->
<g id="node6" class="node">
<title>AS4242421080</title>
<ellipse fill="none" stroke="blue" stroke-width="1.5" cx="389.65" cy="-180" rx="63.56" ry="18"></ellipse>
<text text-anchor="middle" x="389.65" y="-176.3" font-family="Times,serif" font-size="14.00">AS4242421080</text>
</g>
<!-- AS4242423914&#45;&gt;AS4242421080 -->
<g id="edge12" class="edge">
<title>AS4242423914-&gt;AS4242421080</title>
<path fill="none" stroke="black" d="M267.51,-312.12C275.38,-308.48 283.31,-304.11 290.12,-299 324.63,-273.12 354.66,-232.79 372.23,-206.39"></path>
<polygon fill="black" stroke="black" points="375.16,-208.29 377.69,-198 369.3,-204.47 375.16,-208.29"></polygon>
</g>
<!-- AS4242421588 -->
<g id="node3" class="node">
<title>AS4242421588</title>
<ellipse fill="none" stroke="blue" stroke-width="1.5" cx="63.53" cy="-180" rx="63.56" ry="18"></ellipse>
<text text-anchor="middle" x="63.53" y="-176.3" font-family="Times,serif" font-size="14.00">AS4242421588</text>
</g>
<!-- AS4242423088 -->
<g id="node5" class="node">
<title>AS4242423088</title>
<ellipse fill="none" stroke="blue" stroke-width="1.5" cx="226.59" cy="-272" rx="63.56" ry="18"></ellipse>
<text text-anchor="middle" x="226.59" y="-268.3" font-family="Times,serif" font-size="14.00">AS4242423088</text>
</g>
<!-- AS4242421588&#45;&gt;AS4242423088 -->
<g id="edge4" class="edge">
<title>AS4242421588-&gt;AS4242423088</title>
<path fill="none" stroke="black" d="M90.56,-196.58C110.25,-208.94 138.06,-226.02 163.06,-240 170.09,-243.93 177.66,-247.97 185.02,-251.79"></path>
<polygon fill="black" stroke="black" points="183.68,-255.04 194.18,-256.5 186.88,-248.81 183.68,-255.04"></polygon>
</g>
<!-- AS4242421588&#45;&gt;AS4242421080 -->
<g id="edge7" class="edge">
<title>AS4242421588-&gt;AS4242421080</title>
<path fill="none" stroke="black" d="M105.25,-193.79C122.81,-199.05 143.72,-204.4 163.06,-207 219.03,-214.53 234.15,-214.53 290.12,-207 305.98,-204.87 322.9,-200.88 338.16,-196.62"></path>
<polygon fill="black" stroke="black" points="339.29,-199.93 347.93,-193.79 337.35,-193.21 339.29,-199.93"></polygon>
</g>
<!-- AS4242421888 -->
<g id="node7" class="node">
<title>AS4242421888</title>
<ellipse fill="none" stroke="black" stroke-width="1.5" cx="226.59" cy="-180" rx="63.56" ry="18"></ellipse>
<text text-anchor="middle" x="226.59" y="-176.3" font-family="Times,serif" font-size="14.00">AS4242421888</text>
</g>
<!-- AS4242421588&#45;&gt;AS4242421888 -->
<g id="edge1" class="edge">
<title>AS4242421588-&gt;AS4242421888</title>
<path fill="none" stroke="black" d="M127.26,-180C135.7,-180 144.42,-180 153.02,-180"></path>
<polygon fill="black" stroke="black" points="153.03,-183.5 163.03,-180 153.03,-176.5 153.03,-183.5"></polygon>
</g>
<!-- AS4242422464 -->
<g id="node8" class="node">
<title>AS4242422464</title>
<ellipse fill="none" stroke="black" stroke-width="1.5" cx="226.59" cy="-126" rx="63.56" ry="18"></ellipse>
<text text-anchor="middle" x="226.59" y="-122.3" font-family="Times,serif" font-size="14.00">AS4242422464</text>
</g>
<!-- AS4242421588&#45;&gt;AS4242422464 -->
<g id="edge8" class="edge">
<title>AS4242421588-&gt;AS4242422464</title>
<path fill="none" stroke="black" d="M105.17,-166.37C126.44,-159.24 152.67,-150.45 175.22,-142.89"></path>
<polygon fill="black" stroke="black" points="176.59,-146.12 184.96,-139.62 174.37,-139.48 176.59,-146.12"></polygon>
</g>
<!-- AS4242423309 -->
<g id="node9" class="node">
<title>AS4242423309</title>
<ellipse fill="none" stroke="black" stroke-width="1.5" cx="226.59" cy="-72" rx="63.56" ry="18"></ellipse>
<text text-anchor="middle" x="226.59" y="-68.3" font-family="Times,serif" font-size="14.00">AS4242423309</text>
</g>
<!-- AS4242421588&#45;&gt;AS4242423309 -->
<g id="edge10" class="edge">
<title>AS4242421588-&gt;AS4242423309</title>
<path fill="none" stroke="black" d="M82.59,-162.49C101.5,-144.82 132.62,-117.57 163.06,-99 167.85,-96.07 173.02,-93.31 178.26,-90.73"></path>
<polygon fill="black" stroke="black" points="180.12,-93.73 187.7,-86.33 177.16,-87.39 180.12,-93.73"></polygon>
</g>
<!-- AS64719 -->
<g id="node4" class="node">
<title>AS64719</title>
<ellipse fill="none" stroke="blue" stroke-width="1.5" cx="226.59" cy="-18" rx="38.01" ry="18"></ellipse>
<text text-anchor="middle" x="226.59" y="-14.3" font-family="Times,serif" font-size="14.00">AS64719</text>
</g>
<!-- AS64719&#45;&gt;AS4242421080 -->
<g id="edge6" class="edge">
<title>AS64719-&gt;AS4242421080</title>
<path fill="none" stroke="black" d="M258.98,-27.77C269.55,-32 280.97,-37.69 290.12,-45 327.76,-75.07 358.02,-122.92 374.64,-152.84"></path>
<polygon fill="black" stroke="black" points="371.7,-154.76 379.55,-161.88 377.85,-151.42 371.7,-154.76"></polygon>
</g>
<!-- AS4242423088&#45;&gt;AS4242421080 -->
<g id="edge5" class="edge">
<title>AS4242423088-&gt;AS4242421080</title>
<path fill="none" stroke="black" d="M259,-256.5C269.03,-251.4 280.11,-245.6 290.12,-240 311.7,-227.93 335.38,-213.55 354.11,-201.89"></path>
<polygon fill="black" stroke="black" points="355.99,-204.85 362.61,-196.58 352.28,-198.91 355.99,-204.85"></polygon>
</g>
<!-- AS4242421080&#45;&gt;dest_prefix -->
<g id="edge3" class="edge">
<title>AS4242421080-&gt;dest_prefix</title>
<path fill="none" stroke="black" d="M453.25,-180C461.68,-180 470.4,-180 479.04,-180"></path>
<polygon fill="black" stroke="black" points="479.13,-183.5 489.13,-180 479.13,-176.5 479.13,-183.5"></polygon>
</g>
<!-- AS4242421888&#45;&gt;AS4242421080 -->
<g id="edge2" class="edge">
<title>AS4242421888-&gt;AS4242421080</title>
<path fill="none" stroke="black" d="M290.32,-180C298.76,-180 307.48,-180 316.08,-180"></path>
<polygon fill="black" stroke="black" points="316.09,-183.5 326.09,-180 316.09,-176.5 316.09,-183.5"></polygon>
</g>
<!-- AS4242422464&#45;&gt;AS4242421080 -->
<g id="edge9" class="edge">
<title>AS4242422464-&gt;AS4242421080</title>
<path fill="none" stroke="black" d="M268.23,-139.63C289.5,-146.76 315.73,-155.55 338.28,-163.11"></path>
<polygon fill="black" stroke="black" points="337.42,-166.52 348.02,-166.38 339.65,-159.88 337.42,-166.52"></polygon>
</g>
<!-- AS4242423309&#45;&gt;AS4242421080 -->
<g id="edge11" class="edge">
<title>AS4242423309-&gt;AS4242421080</title>
<path fill="none" stroke="black" d="M265.48,-86.33C273.82,-90.04 282.45,-94.32 290.12,-99 316.87,-115.32 344.15,-138.35 363.2,-155.68"></path>
<polygon fill="black" stroke="black" points="360.86,-158.28 370.59,-162.49 365.61,-153.14 360.86,-158.28"></polygon>
</g>
</g>
</svg>
